<svg xmlns="http://www.w3.org/2000/svg" width="56" height="56" viewBox="0 0 56 56"><g transform="matrix(3.77953 0 0 3.77953 2097.423 -3403.097)"><circle cx="-547.535" cy="907.811" r="7.408" fill="#e81e63"/><g fill="#fff" transform="translate(-63.2 200.208)"><path d="m -1836.0586,1573.3887 c 7e-4,0.015 7e-4,0.03 0,0.045 -0.1371,1.3921 -1.2009,2.2548 -1.7793,3.1289 -0.1565,0.2361 -0.2207,0.5929 -0.2207,0.9902 l 0,16.9434 c 0,1.027 0.4872,1.9853 1.3047,2.6055 0.3302,0.2063 0.7187,0.3077 1.1074,0.2812 0.01,-3e-4 0.021,-3e-4 0.031,0 l 10.1113,0 c 0.5028,0 0.9838,-0.1644 1.3867,-0.4648 0.7061,-0.5926 1.1016,-1.4788 1.0567,-2.4004 -2e-4,-0.01 -2e-4,-0.014 0,-0.021 l 0,-16.9434 c -10e-5,-0.01 -10e-5,-0.01 0,-0.016 0.012,-0.3911 -0.096,-0.7837 -0.2227,-0.9746 -0.017,-0.028 -0.032,-0.057 -0.043,-0.088 -0.6089,-0.8967 -1.4614,-1.769 -1.7207,-2.9824 -0.01,-0.034 -0.014,-0.068 -0.016,-0.1035 z m 11.3707,11.8117 c 0.2838,-0.01 0.5154,0.226 0.5098,0.5098 l 0,6.7481 c -2e-4,0.9254 -0.3022,1.8279 -0.8575,2.5683 l -0.7382,0.9824 c -0.3879,0.6052 -1.271,-0.059 -0.7969,-0.5996 l 0.7304,-0.9882 c 0.4257,-0.5676 0.6581,-1.2536 0.6583,-1.9629 l 0,-6.7481 c -0.01,-0.2777 0.2164,-0.5066 0.4941,-0.5098 z" color="#000" enable-background="accumulate" font-family="sans-serif" font-weight="400" transform="matrix(.26458 0 0 .26458 0 288.533)" style="line-height:normal;text-indent:0;text-align:start;text-decoration-line:none;text-decoration-style:solid;text-decoration-color:#000;text-transform:none;white-space:normal;isolation:auto;mix-blend-mode:normal;solid-color:#000;solid-opacity:1" overflow="visible"/><rect width="3.175" height=".529" x="-485.922" y="704.032" rx=".132" ry=".132"/></g></g></svg>